<svg width="43" height="43" viewBox="0 0 43 43" fill="none" xmlns="http://www.w3.org/2000/svg">
<path d="M4.35811 43H29.1732C36.8086 43 43 36.8086 43 29.1732V4.35811C43 1.95243 41.0476 0 38.6419 0H4.35811C1.95243 0 0 1.95243 0 4.35811V38.6419C0 41.0476 1.95243 43 4.35811 43Z" fill="#000116"/>
<path d="M11.947 18.5423C12.9668 18.5423 13.8472 18.9752 14.588 19.8381L17.1274 17.601C16.523 16.8601 15.7618 16.2964 14.8466 15.91C13.9314 15.5236 12.8971 15.3289 11.7436 15.3289C10.4536 15.3289 9.3031 15.5933 8.29492 16.1192C7.28675 16.648 6.49648 17.3889 5.92992 18.3476C5.36337 19.3064 5.08154 20.4018 5.08154 21.6366C5.08154 22.8714 5.34593 23.9725 5.87181 24.8761C6.39769 25.7797 7.11533 26.4653 8.016 26.936C8.91958 27.4067 9.92485 27.642 11.0347 27.642C12.0661 27.642 12.9349 27.4416 13.638 27.0406C13.8878 26.8982 14.1958 27.0871 14.1958 27.3747H16.7874V21.1659H13.3387V23.9928C12.8564 24.3299 12.2724 24.4984 11.5897 24.4984C10.8488 24.4984 10.2474 24.2572 9.78249 23.7749C9.31762 23.2926 9.08519 22.5692 9.08519 21.6046C9.08519 20.64 9.34087 19.8875 9.84931 19.35C10.3607 18.8125 11.058 18.5423 11.9441 18.5423H11.947Z" fill="white"/>
<path d="M28.0342 24.3066L22.8829 24.2979V15.5991H18.9113V27.3747H28.0342V24.3066Z" fill="white"/>
<path d="M21.1601 33.6562V37.8574H20.0212C19.2978 37.8574 18.7109 37.2705 18.7109 36.5471V33.7288C18.7109 32.8166 18.2867 32.4127 17.633 32.4127C16.9793 32.4127 16.4912 32.8485 16.4912 33.8131V37.8574H14.0448V30.5968H15.6428C16.0728 30.5968 16.4214 30.9455 16.4214 31.3755C16.8892 30.7741 17.572 30.4312 18.4552 30.4312C20.1665 30.4312 21.163 31.5818 21.163 33.6562H21.1601Z" fill="#BED8FD"/>
<path d="M28.2114 36.059V37.8574H23.6935C22.9643 37.8574 22.3716 37.2647 22.3716 36.5355V31.9071C22.3716 31.1779 22.9643 30.5852 23.6935 30.5852H28.0749V32.3836H24.6146V33.4034H27.4299V34.9404H24.6146V36.0619H28.2114V36.059Z" fill="#BED8FD"/>
<path d="M9.184 30.376C6.88291 30.376 5.18616 31.9595 5.18616 34.1153C5.18616 36.2711 6.88291 37.8545 9.184 37.8545C11.4851 37.8545 13.1818 36.2711 13.1818 34.1153C13.1818 31.9595 11.4851 30.376 9.184 30.376ZM9.184 36.1694C8.09447 36.1694 7.24318 35.3588 7.24318 34.1153C7.24318 32.8718 8.09737 32.0611 9.184 32.0611C10.2706 32.0611 11.1248 32.8718 11.1248 34.1153C11.1248 35.3588 10.2706 36.1694 9.184 36.1694Z" fill="#BED8FD"/>
</svg>
